<?xml version="1.0" encoding="UTF-8"?>
<svg id="Layer_2" data-name="Layer 2" xmlns="http://www.w3.org/2000/svg" viewBox="0 0 289.39 90">
  <defs>
    <style>
      .cls-1 {
        fill: #fff;
      }

      .cls-2 {
        fill: #a9b6c7;
      }

      .cls-3 {
        fill: #1f2430;
      }
    </style>
  </defs>
  <g id="Layer_1-2" data-name="Layer 1">
    <g>
      <g>
        <path class="cls-3" d="M129.17,5c8.45,0,12.61,7.95,12.61,25.9,0,11.19,.73,22.07,1.51,24,1.68,4.16,9.57,5.56,9.57,16.39,0,13.72-6.22,13.7-18.91,13.7s-19.48-.48-19.87-12.23c-1.25-37.8-.75-67.77,15.08-67.77Z"/>
        <path class="cls-3" d="M197.58,35.96c-6.17,0-9.54,4.59-8.62,13.39,.92,8.81,1.47,13.39-3.85,13.76-5.32,.37-5.32-8.44-4.59-15.41s-3.43-11.74-9.91-11.74-10.95,4.14-11.74,11.56-.88,25.87,6.42,33.18c4.68,4.68,11.5,4.26,21.1,4.26,8.01,0,15.84-1.4,19.94-8.23,4.95-8.26,4.83-22.02,2.63-30.83-1.86-7.43-4.89-9.93-11.38-9.93Z"/>
        <path class="cls-3" d="M239.35,5.11c-5.01,.58-11.8,2.34-13.91,9.24-1.43,4.65,.74,11.11-1.06,12.98-2.09,2.16-9.98-.35-9.98,10.4s9.45,5.61,11.36,8.77c1.91,3.16,0,28.87,1.65,33.48s5.32,4.98,9.85,4.98c5.02,0,9.24,.04,10.49-5.45s-2.98-31.38-.22-34.53c2.76-3.16,10.52,.7,10.52-9.59,0-9.24-9.35-7.48-11.15-7.83s-2.02-5.03,.74-5.38c2.76-.35,6.8-2.81,6.59-8.42-.21-5.61-7.75-9.47-14.87-8.65Z"/>
        <path class="cls-3" d="M276.41,28c-7.36,0-10.95,8.94-10.95,24.68,0,20.54-.9,26.7,.68,29.26,1.88,3.04,7.17,3.04,11.29,3.04,4.5,0,9.24-.28,11.12-3.04,1.88-2.76,0-18.29,0-26.94,0-16.23-1.37-27-12.14-27Z"/>
        <ellipse class="cls-3" cx="277.3" cy="14.36" rx="10.78" ry="9.36"/>
      </g>
      <g>
        <path class="cls-2" d="M87.94,45c.53-8.74-2.09-23.75-2.09-28.45s6.37-11.15,3.33-15.23c-3.33-4.48-17.76,3.81-21.67,4.93-3.91,1.12-11.52-.22-22.51-.22-9.44,0-18.61,1.34-22.51,.22C18.58,5.13,4.15-3.16,.82,1.32c-3.04,4.09,3.33,10.53,3.33,15.23s-2.62,19.71-2.09,28.45c-.53,8.74,2.09,23.75,2.09,28.45s-6.37,11.15-3.33,15.23c3.33,4.48,17.76-3.81,21.67-4.93,3.91-1.12,13.08,.22,22.51,.22,10.99,0,18.61-1.34,22.51-.22,3.91,1.12,18.34,9.41,21.67,4.93,3.04-4.09-3.33-10.53-3.33-15.23s2.62-19.71,2.09-28.45Z"/>
        <path class="cls-1" d="M45,58.32c-13.17,0-16.7-6.7-16.84-6.99-.56-1.11-.11-2.46,1-3.02,1.11-.56,2.46-.11,3.02,1,.08,.14,2.66,4.51,12.83,4.51s12.85-4.57,12.88-4.61c.61-1.08,1.99-1.46,3.07-.84,1.08,.61,1.46,1.99,.84,3.07-.16,.28-4.06,6.89-16.79,6.89Z"/>
      </g>
    </g>
  </g>
</svg>